<?xml version="1.0" encoding="utf-8"?>
<!-- Generator: Adobe Illustrator 25.0.1, SVG Export Plug-In . SVG Version: 6.00 Build 0)  -->
<svg version="1.1" id="Слой_1" xmlns="http://www.w3.org/2000/svg" xmlns:xlink="http://www.w3.org/1999/xlink" x="0px" y="0px"
	 viewBox="0 0 512 512" style="enable-background:new 0 0 512 512;" xml:space="preserve">
<style type="text/css">
	.st0{display:none;}
	.st1{display:inline;fill:#272624;stroke:#000000;stroke-miterlimit:10;}
	.st2{fill:#291D11;stroke:#FFFFFF;stroke-miterlimit:10;}
	.st3{display:inline;fill:#FFFFFF;stroke:#000000;stroke-miterlimit:10;}
</style>
<g id="Слой_4" class="st0">
	<rect class="st1" width="512" height="512"/>
</g>
<g id="Слой_3">
	<g>
		<path class="st2" d="M176,430.7c-14-9.9-19.2-26.8-20.7-32c-5.7-18.8-1.3-35.2,1.9-47.5c4.6-17.1,11.7-28.7,19.3-41
			c4.4-7.2,15.9-25.6,28.1-36.4c1.2-1,5.6-4.9,10.5-10.9c3.1-3.8,5.7-6.9,7.9-11.6c4.7-9.8,4.2-18.4,4.1-20.2
			c-0.1-2-0.7-6.8-3.4-11.9c-1.1-2-1.8-2.9-2.7-3.6c-2.9-2.3-6.5-2-9-1.9c-2.1,0.1-5.1,0.3-7.9,2.3c-2.6,1.8-2.5,3.1-4.6,5.6
			c-3.2,3.7-8.2,4.4-10.7,4.7c-5.4,0.7-7-1.4-12.9-0.3c-2.3,0.4-4,1.1-5.3,1.7c-22.7,9.7-33.4,16.9-33.4,16.9
			c-4.9,3.3-21.8,12.3-55.4,30.2c-25.3,13.5-22.5,11.3-38.1,20c-16.6,9.2-25.4,14.8-26.3,13.6c-0.9-1.2,8.2-9.3,22.7-22.5
			c40.3-36.6,36.2-34.6,63.3-58.6c5.3-4.7,16.6-14.7,30.7-28.5c4.9-4.8,4.4-4.5,7.2-7.2c16.6-15.8,30.4-26.8,30.4-26.8
			c3.1-2.5,6.4-5,8.8-9.6c2.4-4.6,1.9-7.5,3.1-11.7c2-7.5,7.1-12.2,12.4-17.1c10.6-9.8,22.3-13.8,25.8-15
			c76.8-25.4,122.6-34.2,122.6-34.2s86.3-16.9,138.6-10.8c4.3,0.5,11.5,1.7,11.5,2.9c0,1.6-8.5,2.6-21,4.9c-5.4,1-2.4,0.6-52,13
			c0,0-3,0.8-17.9,4.8c0,0-9.5,2.6-20.6,6.9c0,0-2.1,0.8-5.4,2.6c-2.3,1.2-3.5,1.9-4.6,3.2c-0.7,0.7-2.9,3-2.9,6.2
			c0,0,0,2.5,1.5,4.8c3.2,4.7,14.6,3.6,32.7,1.5c11-1.3,18.1-2.2,28.2-3c11.5-0.9,20.1-1.6,20.4-0.2c0.2,0.8-2.5,2-21.4,8.8
			c-22.5,8.2-33.8,12.2-41.9,14.7c-4.9,1.5-9.6,3.7-14.5,5.2c-3.1,1-6,2.5-9.1,3.6c-1.8,0.6-5.7,1.8-7.4,4.8
			c-0.1,0.1-0.1,0.3-0.2,0.4c-1.6,3.2-1.4,6.2-1.3,7.1c0.1,1.1,0.3,4.3,1.9,6.2c2.8,3.3,9,2.1,14.5,1.3c19.3-2.9,28.9-4.4,32.9-5.3
			c15.8-3.5,19.4-4.4,19.6-3.8c0.4,1.1-11.6,5.4-34.5,16.5c-5.1,2.5-12,5.9-21.7,10c-2.8,1.2-3.8,1.6-6.8,2.9
			c-4.5,2-4.1,1.9-18.9,9.6c-1.9,1-3.9,1.9-5.8,4.1c-2.1,2.6-2.8,5.3-3,6.4c-0.2,1.2-0.8,4.6,0.9,8c1.4,2.6,3.5,4,4.5,4.6
			c1.9,1.2,2.5,0.9,5.7,2.6c2.5,1.2,3.7,1.9,4.5,2.8c1.9,2.2,1.5,5.7,0.6,9.4c-2.7,10.9-10,19.4-15.5,26
			c-11.7,14.3-18.5,24.9-20.5,28c-8,12.6-10.3,19.2-11,21.6c-1.9,5.6-4.3,13.1-3.8,22.3c0.9,17.1,13.1,30.8,21,39.1
			c3.9,4.1,6.8,6.2,7.9,6.9c7.9,5.2,13,4.4,13.6,6.3c1.5,4.7-26.1,21-73.2,36.3C220.8,436.7,195.5,444.5,176,430.7z"/>
	</g>
	<path class="st2" d="M678.5,152.3"/>
</g>
<g id="Слой_2_1_" class="st0">
	<path class="st3" d="M431.9,106.4"/>
	<path class="st3" d="M210.8,438c-19.5-15.6-21.5-43-21.7-46.4c-1-18,5.8-31.3,14.3-47.8c8-15.6,16.7-32.5,33.6-48.2
		c4.6-4.3,13.5-11.9,18.3-24.5c3.5-9.4,2.4-15.4,1.5-18.4c-1.3-4.5-3.7-7.7-5.4-9.6l-14.4-0.1c-8.6,8-9.1,8-9.1,8
		c-3.4,2.2-9.3,4-19.4,1.7c-48.3,25.4-96.7,50.7-145,76.1l151.7-139.4c0.5-3.9,1.8-9.8,5.2-16.1c9.7-17.8,29.3-24.4,40.6-28
		c108.6-34.6,156.5-38.1,170.9-39c1.2-0.1,14.9-1,33,0c8.9,0.5,31.5,1.7,31.7,4.7c0.2,3-22.2,4.9-51.1,12.2
		c-24.1,6.1-43.3,13.6-56.5,19.4v11.1"/>
	<path class="st3" d="M405.4,195.9"/>
	<path class="st3" d="M397.4,196.7"/>
	<path class="st3" d="M388.9,153c0.4,0.5,1.1,1.3,2.1,1.9c2.6,1.7,5.4,1.8,6.6,1.8c17-0.1,29.7-2.1,29.7-2.1
		c14.3-2.3,18.9-2.9,24.3-3.3c7.9-0.6,9.8-1.1,9.9-0.6c0.5,1.7-23.4,9.8-33,13c-18.3,6.2-25.5,7.8-38.5,13.8"/>
	<path class="st3" d="M390.1,177.5c-0.6,0.3-1.6,0.7-2.9,1.2c-1.4,0.5-2,0.7-3.1,1.1c-3,1.1-4.6,1.6-5.6,2.4
		c-1.5,1.2-2.2,2.7-2.7,3.8c-1.6,3.5-1,6.5-0.2,9.8c0.2,0.7,0.4,1.8,1.3,2.3c0.2,0.1,0.8,0.4,1.9,0.2c2.5-0.4,35.7-11.5,54.4-8
		c1.7,0.3,2.9,0.7,3.1,1.4c0.8,4.1-37.1,16.3-44.8,20.2c-0.1,0.1-1.1,0.6-2.3,1.2c-3,1.5-5.4,2.5-6.6,3c-6.8,2.9-9.1,3.5-12.8,5.2
		c-6.6,3.1-11,5.2-13.4,9.8c-2.3,4.3-3.1,11,0,14c2.8,2.7,7.1,0.5,10.7,4.1c1.8,1.8,2.4,4.1,2.5,4.9c1.3,5.6-2.4,11.1-6,16.3
		c-2.5,3.7-4.1,4.9-6.6,9.5c-1.3,2.3-1.9,3.8-2.6,5.3c-2.7,5.8-5.8,9.4-9.4,14.1c-8.4,10.8-12.5,16.1-15.1,21.8
		c-3.6,7.8-4.6,14.7-4.9,17.5c-0.5,4.4-1.9,18.4,6,30.5c2.4,3.6,7.3,7.7,17.1,15.8c5.7,4.7,10.5,8.4,14,11"/>
</g>
<g id="Слой_1_1_" class="st0">
	
		<image style="display:inline;overflow:visible;enable-background:new    ;" width="625" height="534" xlink:href="F4094531F22BADD7.png"  transform="matrix(0.8192 0 0 0.8406 0 31.5729)">
	</image>
</g>
</svg>
